<svg width="38" height="38" viewBox="0 0 38 38" fill="none" xmlns="http://www.w3.org/2000/svg">
<path d="M32.4356 15.1966C32.1329 15.2002 31.8317 15.2428 31.539 15.3232L28.031 9.86941C28.5092 9.21742 28.7691 8.42139 28.7712 7.60227C28.7712 5.50737 27.1271 3.80258 25.1068 3.80258C23.0865 3.80258 21.4424 5.50737 21.4424 7.60227C21.4424 9.69716 23.0852 11.4019 25.1068 11.4019C25.4158 11.4019 25.7114 11.35 25.9984 11.2753L29.509 16.7329C29.291 17.0368 29.1181 17.3728 28.9959 17.7297H26.3331V20.2628H28.9959C29.1205 20.6259 29.2928 20.9594 29.5126 21.2634L25.9997 26.7273C25.7082 26.6468 25.4083 26.6038 25.1068 26.5994C23.0852 26.5994 21.4424 28.3042 21.4424 30.3991C21.4424 32.494 23.0852 34.1988 25.1068 34.1988C27.1283 34.1988 28.7712 32.494 28.7712 30.3991C28.7712 29.5467 28.4903 28.7678 28.031 28.1332L31.5452 22.668C31.831 22.7427 32.1266 22.7947 32.4356 22.7947C34.4559 22.7947 36.1 21.0899 36.1 18.995C36.1 16.9001 34.4559 15.1953 32.4356 15.1953M25.1068 8.86756C24.7923 8.85297 24.4953 8.71316 24.2777 8.47723C24.0602 8.2413 23.9387 7.92744 23.9387 7.601C23.9387 7.27456 24.0602 6.9607 24.2777 6.72477C24.4953 6.48884 24.7923 6.34903 25.1068 6.33444C25.4307 6.33444 25.7414 6.46788 25.9705 6.7054C26.1996 6.94293 26.3282 7.26509 26.3282 7.601C26.3282 7.93691 26.1996 8.25907 25.9705 8.49659C25.7414 8.73412 25.4307 8.86756 25.1068 8.86756ZM25.1068 31.6657C24.7923 31.6511 24.4953 31.5113 24.2777 31.2753C24.0602 31.0394 23.9387 30.7255 23.9387 30.3991C23.9387 30.0727 24.0602 29.7588 24.2777 29.5229C24.4953 29.2869 24.7923 29.1471 25.1068 29.1325C25.4307 29.1325 25.7414 29.266 25.9705 29.5035C26.1996 29.741 26.3282 30.0632 26.3282 30.3991C26.3282 30.735 26.1996 31.0572 25.9705 31.2947C25.7414 31.5322 25.4307 31.6657 25.1068 31.6657ZM32.4356 20.2615C32.1169 20.2603 31.8113 20.1299 31.584 19.8983C31.3567 19.6666 31.2257 19.352 31.219 19.0216V18.9671C31.2243 18.718 31.3004 18.476 31.4379 18.2715C31.5753 18.0671 31.7679 17.9092 31.9915 17.8178C32.2151 17.7265 32.4597 17.7056 32.6947 17.7578C32.9297 17.81 33.1446 17.9331 33.3125 18.1114C33.4803 18.2898 33.5936 18.5156 33.6381 18.7605C33.6826 19.0054 33.6564 19.2585 33.5628 19.488C33.4691 19.7176 33.3122 19.9133 33.1117 20.0507C32.9111 20.188 32.6759 20.261 32.4356 20.2603M12.8921 26.5982C12.5818 26.5982 12.2862 26.6501 11.9979 26.7248L8.48498 21.2609C8.70485 20.9569 8.87707 20.6234 9.00166 20.2603H11.6755V17.7272H9.00166C8.87952 17.3702 8.7066 17.0343 8.48865 16.7304L11.9992 11.2715C12.2862 11.3475 12.5818 11.3994 12.8908 11.3994C14.9124 11.3994 16.5552 9.69462 16.5552 7.59973C16.5552 5.50484 14.9124 3.80005 12.8908 3.80005C10.8693 3.80005 9.22641 5.50484 9.22641 7.59973C9.22641 8.45213 9.50857 9.23106 9.96663 9.86561L6.45978 15.3245C6.16757 15.2437 5.86683 15.2007 5.56444 15.1966C3.5429 15.1966 1.90002 16.9001 1.90002 18.9963C1.90002 21.0924 3.5429 22.7959 5.56444 22.7959C5.87225 22.7959 6.16785 22.744 6.45489 22.6693L9.96541 28.1332C9.48807 28.7855 9.22903 29.5815 9.22764 30.4004C9.22764 32.4953 10.8705 34.2001 12.8921 34.2001C14.9136 34.2001 16.5565 32.4953 16.5565 30.4004C16.5565 28.3055 14.9124 26.6007 12.8921 26.6007M12.8921 6.3357C13.5639 6.3357 14.1135 6.90439 14.1135 7.60227C14.1135 8.30014 13.5639 8.86883 12.8921 8.86883C12.2202 8.86883 11.6706 8.30014 11.6706 7.60227C11.6706 6.90439 12.2178 6.3357 12.8921 6.3357ZM5.56322 20.2628C4.88897 20.2628 4.34175 19.6929 4.34175 18.9963C4.34175 18.2996 4.88897 17.7297 5.56322 17.7297C5.88717 17.7297 6.19786 17.8631 6.42693 18.1007C6.656 18.3382 6.78469 18.6603 6.78469 18.9963C6.78469 19.3322 6.656 19.6543 6.42693 19.8918C6.19786 20.1294 5.88717 20.2628 5.56322 20.2628ZM12.8921 31.6669C12.5775 31.6523 12.2806 31.5125 12.063 31.2766C11.8454 31.0407 11.724 30.7268 11.724 30.4004C11.724 30.0739 11.8454 29.7601 12.063 29.5241C12.2806 29.2882 12.5775 29.1484 12.8921 29.1338C13.216 29.1338 13.5267 29.2672 13.7558 29.5048C13.9848 29.7423 14.1135 30.0645 14.1135 30.4004C14.1135 30.7363 13.9848 31.0584 13.7558 31.296C13.5267 31.5335 13.216 31.6669 12.8921 31.6669ZM19.0043 24.0625C16.3097 24.0625 14.1184 21.789 14.1184 18.9963C14.1184 16.2035 16.3097 13.93 19.0043 13.93C21.6989 13.93 23.8902 16.2022 23.8902 18.9963C23.8902 21.7903 21.6989 24.0625 19.0043 24.0625ZM19.0043 16.4631C17.657 16.4631 16.5614 17.5992 16.5614 18.9963C16.5614 20.3933 17.657 21.5294 19.0043 21.5294C20.3516 21.5294 21.4472 20.3933 21.4472 18.9963C21.4472 17.5992 20.3516 16.4631 19.0043 16.4631Z" fill="black"/>
</svg>
