<svg width="25" height="25" viewBox="0 0 25 25" fill="none" xmlns="http://www.w3.org/2000/svg">
<g clip-path="url(#clip0_55_5569)">
<path d="M21.1926 9.39723C20.9854 9.39972 20.7794 9.42883 20.5791 9.48388L18.1789 5.75233C18.5061 5.30623 18.6839 4.76158 18.6853 4.20113C18.6853 2.76778 17.5604 1.60134 16.1781 1.60134C14.7958 1.60134 13.6709 2.76778 13.6709 4.20113C13.6709 5.63447 14.795 6.80091 16.1781 6.80091C16.3896 6.80091 16.5918 6.76538 16.7882 6.71425L19.1901 10.4484C19.041 10.6563 18.9227 10.8862 18.8391 11.1304H17.0172V12.8636H18.8391C18.9244 13.112 19.0422 13.3402 19.1926 13.5482L16.789 17.2867C16.5896 17.2316 16.3844 17.2022 16.1781 17.1992C14.795 17.1992 13.6709 18.3656 13.6709 19.799C13.6709 21.2323 14.795 22.3987 16.1781 22.3987C17.5613 22.3987 18.6853 21.2323 18.6853 19.799C18.6853 19.2157 18.4931 18.6828 18.1789 18.2486L20.5833 14.5093C20.7789 14.5604 20.9811 14.5959 21.1926 14.5959C22.5749 14.5959 23.6998 13.4295 23.6998 11.9961C23.6998 10.5628 22.5749 9.39636 21.1926 9.39636M16.1781 5.06685C15.9629 5.05687 15.7597 4.96121 15.6109 4.79978C15.462 4.63836 15.3789 4.42361 15.3789 4.20026C15.3789 3.97691 15.462 3.76216 15.6109 3.60073C15.7597 3.43931 15.9629 3.34365 16.1781 3.33366C16.3998 3.33366 16.6123 3.42497 16.7691 3.58748C16.9258 3.75 17.0139 3.97042 17.0139 4.20026C17.0139 4.43009 16.9258 4.65052 16.7691 4.81303C16.6123 4.97555 16.3998 5.06685 16.1781 5.06685ZM16.1781 20.6656C15.9629 20.6556 15.7597 20.5599 15.6109 20.3985C15.462 20.2371 15.3789 20.0223 15.3789 19.799C15.3789 19.5756 15.462 19.3609 15.6109 19.1994C15.7597 19.038 15.9629 18.9423 16.1781 18.9324C16.3998 18.9324 16.6123 19.0237 16.7691 19.1862C16.9258 19.3487 17.0139 19.5691 17.0139 19.799C17.0139 20.0288 16.9258 20.2492 16.7691 20.4117C16.6123 20.5743 16.3998 20.6656 16.1781 20.6656ZM21.1926 12.8627C20.9745 12.8619 20.7654 12.7727 20.6099 12.6142C20.4544 12.4557 20.3647 12.2404 20.3602 12.0143V11.9771C20.3638 11.8066 20.4159 11.641 20.5099 11.5011C20.6039 11.3613 20.7357 11.2533 20.8887 11.1907C21.0417 11.1282 21.2091 11.1139 21.3699 11.1496C21.5307 11.1854 21.6777 11.2696 21.7925 11.3916C21.9073 11.5137 21.9849 11.6682 22.0153 11.8357C22.0458 12.0033 22.0279 12.1765 21.9638 12.3335C21.8997 12.4905 21.7923 12.6244 21.6551 12.7184C21.5179 12.8124 21.357 12.8623 21.1926 12.8619M7.82067 17.1983C7.60839 17.1983 7.40614 17.2338 7.2089 17.285L4.8053 13.5465C4.95573 13.3385 5.07358 13.1103 5.15882 12.8619H6.98827V11.1287H5.15882C5.07525 10.8845 4.95694 10.6546 4.80781 10.4467L7.20974 6.71165C7.40614 6.76365 7.60839 6.79918 7.81983 6.79918C9.20299 6.79918 10.3271 5.63274 10.3271 4.19939C10.3271 2.76605 9.20299 1.59961 7.81983 1.59961C6.43667 1.59961 5.3126 2.76605 5.3126 4.19939C5.3126 4.78261 5.50565 5.31557 5.81906 5.74973L3.41964 9.48475C3.2197 9.42948 3.01394 9.40008 2.80704 9.39723C1.42388 9.39723 0.299805 10.5628 0.299805 11.997C0.299805 13.4312 1.42388 14.5968 2.80704 14.5968C3.01764 14.5968 3.21989 14.5613 3.41629 14.5101L5.81822 18.2486C5.49162 18.6949 5.31439 19.2396 5.31343 19.7998C5.31343 21.2332 6.43751 22.3996 7.82067 22.3996C9.20382 22.3996 10.3279 21.2332 10.3279 19.7998C10.3279 18.3665 9.20299 17.2 7.82067 17.2M7.82067 3.33453C8.28033 3.33453 8.65641 3.72363 8.65641 4.20113C8.65641 4.67862 8.28033 5.06772 7.82067 5.06772C7.36101 5.06772 6.98492 4.67862 6.98492 4.20113C6.98492 3.72363 7.35934 3.33453 7.82067 3.33453ZM2.8062 12.8636C2.34487 12.8636 1.97046 12.4736 1.97046 11.997C1.97046 11.5204 2.34487 11.1304 2.8062 11.1304C3.02785 11.1304 3.24043 11.2217 3.39716 11.3842C3.55389 11.5468 3.64195 11.7672 3.64195 11.997C3.64195 12.2268 3.55389 12.4473 3.39716 12.6098C3.24043 12.7723 3.02785 12.8636 2.8062 12.8636ZM7.82067 20.6664C7.60548 20.6564 7.4023 20.5608 7.25343 20.3994C7.10456 20.2379 7.02147 20.0232 7.02147 19.7998C7.02147 19.5765 7.10456 19.3617 7.25343 19.2003C7.4023 19.0389 7.60548 18.9432 7.82067 18.9332C8.04232 18.9332 8.25489 19.0245 8.41163 19.187C8.56836 19.3496 8.65641 19.57 8.65641 19.7998C8.65641 20.0297 8.56836 20.2501 8.41163 20.4126C8.25489 20.5751 8.04232 20.6664 7.82067 20.6664ZM12.0027 15.4634C10.1591 15.4634 8.65975 13.9078 8.65975 11.997C8.65975 10.0862 10.1591 8.53063 12.0027 8.53063C13.8464 8.53063 15.3457 10.0853 15.3457 11.997C15.3457 13.9087 13.8464 15.4634 12.0027 15.4634ZM12.0027 10.2638C11.0809 10.2638 10.3312 11.0412 10.3312 11.997C10.3312 12.9529 11.0809 13.7302 12.0027 13.7302C12.9246 13.7302 13.6742 12.9529 13.6742 11.997C13.6742 11.0412 12.9246 10.2638 12.0027 10.2638Z" fill="white"/>
</g>
<defs>
<clipPath id="clip0_55_5569">
<rect width="25" height="25" fill="white"/>
</clipPath>
</defs>
</svg>
