<svg width="28" height="22" viewBox="0 0 28 22" fill="none" xmlns="http://www.w3.org/2000/svg">
<path d="M19.9375 2.5C21.0547 2.5 22 3.44531 22 4.5625V16.9375C22 18.0977 21.0547 19 19.9375 19H2.0625C0.902344 19 0 18.0977 0 16.9375V4.5625C0 3.44531 0.902344 2.5 2.0625 2.5H19.9375ZM19.9375 4.5625H2.0625V6.32422C3.00781 7.14062 4.55469 8.34375 7.82031 10.9219C8.55078 11.4805 9.96875 12.8555 11 12.8125C11.9883 12.8555 13.4062 11.4805 14.1367 10.9219C17.4023 8.34375 18.9492 7.14062 19.9375 6.32422V4.5625ZM2.0625 16.9375H19.9375V8.98828C18.9492 9.76172 17.5312 10.8789 15.4258 12.5547C14.4375 13.2852 12.8047 14.918 11 14.875C9.15234 14.918 7.47656 13.2852 6.53125 12.5547C4.42578 10.8789 3.00781 9.76172 2.0625 8.98828V16.9375Z" fill="#1A212A"/>
</svg>
