<svg width="22" height="17" viewBox="0 0 22 17" fill="none" xmlns="http://www.w3.org/2000/svg">
<path d="M19.9375 0C21.0547 0 22 0.945312 22 2.0625V14.4375C22 15.5977 21.0547 16.5 19.9375 16.5H2.0625C0.902344 16.5 0 15.5977 0 14.4375V2.0625C0 0.945312 0.902344 0 2.0625 0H19.9375ZM19.9375 2.0625H2.0625V3.82422C3.00781 4.64062 4.55469 5.84375 7.82031 8.42188C8.55078 8.98047 9.96875 10.3555 11 10.3125C11.9883 10.3555 13.4062 8.98047 14.1367 8.42188C17.4023 5.84375 18.9492 4.64062 19.9375 3.82422V2.0625ZM2.0625 14.4375H19.9375V6.48828C18.9492 7.26172 17.5312 8.37891 15.4258 10.0547C14.4375 10.7852 12.8047 12.418 11 12.375C9.15234 12.418 7.47656 10.7852 6.53125 10.0547C4.42578 8.37891 3.00781 7.26172 2.0625 6.48828V14.4375Z" fill="white"/>
</svg>
