<svg width="17" height="23" viewBox="0 0 17 23" fill="none" xmlns="http://www.w3.org/2000/svg">
<path d="M7.39062 21.5703C1.11719 12.5469 0 11.6016 0 8.25C0 3.69531 3.65234 0 8.25 0C12.8047 0 16.5 3.69531 16.5 8.25C16.5 11.6016 15.3398 12.5469 9.06641 21.5703C8.67969 22.1719 7.77734 22.1719 7.39062 21.5703ZM8.25 11.6875C10.1406 11.6875 11.6875 10.1836 11.6875 8.25C11.6875 6.35938 10.1406 4.8125 8.25 4.8125C6.31641 4.8125 4.8125 6.35938 4.8125 8.25C4.8125 10.1836 6.31641 11.6875 8.25 11.6875Z" fill="#1A212A"/>
</svg>
