<svg width="21" height="26" viewBox="0 0 21 26" fill="none" xmlns="http://www.w3.org/2000/svg">
<path d="M16.9713 3.85742H20.5713V7.97171H16.9713V3.85742ZM16.9713 10.0289H20.5713V14.1431H16.9713V10.0289ZM11.5713 3.85742H15.1713V7.97171H11.5713V3.85742ZM11.5713 10.0289H15.1713V14.1431H11.5713V10.0289Z" fill="white"/>
<path d="M8.99958 21.8566C9.70966 21.8566 10.2853 21.281 10.2853 20.5709C10.2853 19.8608 9.70966 19.2852 8.99958 19.2852C8.2895 19.2852 7.71387 19.8608 7.71387 20.5709C7.71387 21.281 8.2895 21.8566 8.99958 21.8566Z" fill="white"/>
<path d="M14.7479 25.7143H1.96639C1.44487 25.7143 0.94471 25.5208 0.575941 25.1763C0.207172 24.8319 0 24.3647 0 23.8776V1.83673C0 1.3496 0.207172 0.882422 0.575941 0.537967C0.94471 0.193512 1.44487 0 1.96639 0H14.7479V1.83673H1.96639V23.8776H14.7479V16.5306H16.7143V23.8776C16.7143 24.3647 16.5071 24.8319 16.1383 25.1763C15.7696 25.5208 15.2694 25.7143 14.7479 25.7143Z" fill="white"/>
</svg>
