<svg width="28" height="35" viewBox="0 0 28 35" fill="none" xmlns="http://www.w3.org/2000/svg">
<path d="M22.6286 5.14282H27.4287V10.6286H22.6286V5.14282ZM22.6286 13.3714H27.4287V18.8572H22.6286V13.3714ZM15.4286 5.14282H20.2286V10.6286H15.4286V5.14282ZM15.4286 13.3714H20.2286V18.8572H15.4286V13.3714Z" fill="black"/>
<path d="M12.0005 29.1429C12.9473 29.1429 13.7148 28.3754 13.7148 27.4287C13.7148 26.4819 12.9473 25.7144 12.0005 25.7144C11.0538 25.7144 10.2863 26.4819 10.2863 27.4287C10.2863 28.3754 11.0538 29.1429 12.0005 29.1429Z" fill="black"/>
<path d="M19.6643 34.2859H2.62223C1.92687 34.2859 1.25999 34.0279 0.768292 33.5686C0.276597 33.1093 0.000366211 32.4864 0.000366211 31.8369V2.44899C0.000366211 1.79948 0.276597 1.17657 0.768292 0.717293C1.25999 0.258018 1.92687 0 2.62223 0H19.6643V2.44899H2.62223V31.8369H19.6643V22.0409H22.2862V31.8369C22.2862 32.4864 22.01 33.1093 21.5183 33.5686C21.0266 34.0279 20.3597 34.2859 19.6643 34.2859Z" fill="black"/>
</svg>
