<svg width="32" height="32" viewBox="0 0 32 32" fill="none" xmlns="http://www.w3.org/2000/svg">
<path d="M19.9996 29.3427H6.66627V26.6761H19.9996V29.3427ZM29.3329 5.33341L23.0196 13.2734L22.7263 13.6334L15.2196 23.2201C14.9718 23.4678 14.6777 23.6644 14.354 23.7985C14.0303 23.9326 13.6833 24.0016 13.3329 24.0016C12.9826 24.0016 12.6356 23.9326 12.3119 23.7985C11.9882 23.6644 11.694 23.4678 11.4463 23.2201C11.1985 22.9723 11.002 22.6782 10.8679 22.3545C10.7338 22.0308 10.6648 21.6838 10.6648 21.3334C10.6648 20.983 10.7338 20.6361 10.8679 20.3124C11.002 19.9886 11.1985 19.6945 11.4463 19.4467L29.3329 5.33341ZM3.52627 9.64542C1.59994 12.73 0.90722 16.4274 1.58627 20.0001H2.66627V18.6667C2.65301 16.0416 3.43894 13.4745 4.91961 11.3067L3.52627 9.64542ZM15.9996 2.66675C13.9604 2.66663 11.9438 3.09328 10.0795 3.91927C8.21507 4.74525 6.54419 5.95229 5.17427 7.46275L6.69961 9.28008C8.50978 7.61595 10.8741 6.68446 13.3329 6.66675C15.8051 6.68372 18.1816 7.62443 19.9956 9.30408L24.7289 5.56808C22.2083 3.68477 19.1462 2.66703 15.9996 2.66675ZM25.1063 14.9334L24.7956 15.3161L23.8249 16.5561C23.939 17.2539 23.9974 17.9597 23.9996 18.6667V20.0001H30.4129C31.0455 16.6633 30.4874 13.2103 28.8356 10.2427L25.1063 14.9334Z" fill="white"/>
</svg>
