<svg width="22" height="22" viewBox="0 0 22 22" fill="none" xmlns="http://www.w3.org/2000/svg">
<path d="M21.3555 15.5547C21.6992 15.7266 21.957 16.1133 21.957 16.543C21.957 16.5859 21.957 16.6719 21.957 16.7578L20.9258 21.2266C20.7969 21.6992 20.4102 22 19.9375 22C8.89453 22 0 13.1055 0 2.0625C0 1.58984 0.300781 1.20312 0.773438 1.07422L5.24219 0.0429688C5.32812 0.0429688 5.41406 0 5.45703 0C5.88672 0 6.27344 0.257812 6.44531 0.644531L8.50781 5.45703C8.55078 5.58594 8.59375 5.71484 8.59375 5.84375C8.59375 6.1875 8.42188 6.48828 8.20703 6.66016L5.58594 8.80859C7.17578 12.1602 9.83984 14.8242 13.1914 16.4141L15.3398 13.793C15.5117 13.5781 15.8125 13.4062 16.1133 13.4062C16.2852 13.4062 16.4141 13.4492 16.543 13.4922L21.3555 15.5547Z" fill="white"/>
</svg>
