<svg width="34" height="34" viewBox="0 0 34 34" fill="none" xmlns="http://www.w3.org/2000/svg">
<path d="M26.5044 4.95117C23.8241 3.61809 20.5417 2.83325 17 2.83325C13.4583 2.83325 10.1773 3.61809 7.49558 4.95117C6.18092 5.60567 5.52358 5.93292 4.8875 6.96142C4.25142 7.98992 4.25 8.98442 4.25 10.9763V15.9204C4.25 23.9713 10.6845 28.4466 14.4118 30.3648C15.4516 30.8988 15.9701 31.1666 17 31.1666C18.0299 31.1666 18.5484 30.8988 19.5882 30.3648C23.3141 28.4466 29.75 23.9699 29.75 15.919V10.9763C29.75 8.98442 29.75 7.98992 29.1125 6.96142C28.475 5.93292 27.8191 5.60567 26.5044 4.95117Z" stroke="white" stroke-width="1.5" stroke-linecap="round" stroke-linejoin="round"/>
<path d="M14.167 14.1666V12.0416C14.167 11.2901 14.4655 10.5695 14.9969 10.0381C15.5282 9.50676 16.2489 9.20825 17.0003 9.20825C17.7518 9.20825 18.4724 9.50676 19.0038 10.0381C19.5351 10.5695 19.8337 11.2901 19.8337 12.0416V14.1666M14.167 14.1666H19.8337M14.167 14.1666C13.6034 14.1666 13.0629 14.3905 12.6644 14.789C12.2659 15.1875 12.042 15.728 12.042 16.2916V18.4166C12.042 18.9802 12.2659 19.5207 12.6644 19.9192C13.0629 20.3177 13.6034 20.5416 14.167 20.5416H19.8337C20.3972 20.5416 20.9377 20.3177 21.3363 19.9192C21.7348 19.5207 21.9587 18.9802 21.9587 18.4166V16.2916C21.9587 15.728 21.7348 15.1875 21.3363 14.789C20.9377 14.3905 20.3972 14.1666 19.8337 14.1666" stroke="white" stroke-width="1.5" stroke-linecap="round" stroke-linejoin="round"/>
</svg>
