<svg width="37" height="37" viewBox="0 0 37 37" fill="none" xmlns="http://www.w3.org/2000/svg">
<path d="M1.25 18.25C1.25 22.7587 3.04107 27.0827 6.22918 30.2708C9.4173 33.4589 13.7413 35.25 18.25 35.25C22.7587 35.25 27.0827 33.4589 30.2708 30.2708C33.4589 27.0827 35.25 22.7587 35.25 18.25C35.25 13.7413 33.4589 9.4173 30.2708 6.22918C27.0827 3.04107 22.7587 1.25 18.25 1.25C13.7413 1.25 9.4173 3.04107 6.22918 6.22918C3.04107 9.4173 1.25 13.7413 1.25 18.25Z" stroke="black" stroke-width="2.5" stroke-linejoin="round"/>
<path d="M10.9642 18.25C10.9642 13.7413 11.7318 9.4173 13.0982 6.22918C14.4645 3.04107 16.3177 1.25 18.2499 1.25C20.1822 1.25 22.0354 3.04107 23.4017 6.22918C24.7681 9.4173 25.5357 13.7413 25.5357 18.25C25.5357 22.7587 24.7681 27.0827 23.4017 30.2708C22.0354 33.4589 20.1822 35.25 18.2499 35.25C16.3177 35.25 14.4645 33.4589 13.0982 30.2708C11.7318 27.0827 10.9642 22.7587 10.9642 18.25Z" stroke="#0B0A0A" stroke-width="2.5" stroke-linejoin="round"/>
<path d="M2.46423 23.9166H34.0357M2.46423 12.5833H34.0357" stroke="black" stroke-width="2.5" stroke-linecap="round"/>
</svg>
