<svg width="36" height="36" viewBox="0 0 36 36" fill="none" xmlns="http://www.w3.org/2000/svg">
<path d="M33.75 5.625H2.25C1.65326 5.625 1.08097 5.86205 0.65901 6.28401C0.237053 6.70597 0 7.27826 0 7.875L0 28.125C0 28.7217 0.237053 29.294 0.65901 29.716C1.08097 30.1379 1.65326 30.375 2.25 30.375H33.75C34.3467 30.375 34.919 30.1379 35.341 29.716C35.7629 29.294 36 28.7217 36 28.125V7.875C36 7.27826 35.7629 6.70597 35.341 6.28401C34.919 5.86205 34.3467 5.625 33.75 5.625ZM30.825 8.4375L18.945 19.26C18.6874 19.4972 18.3501 19.6288 18 19.6288C17.6499 19.6288 17.3126 19.4972 17.055 19.26L5.175 8.4375H30.825ZM2.8125 27.5625V10.08L15.165 21.33C15.9377 22.0415 16.9496 22.4365 18 22.4365C19.0504 22.4365 20.0623 22.0415 20.835 21.33L33.1875 10.08V27.5625H2.8125Z" fill="black"/>
</svg>
